<svg width="28" height="28" viewBox="0 0 29 29" fill="none" xmlns="http://www.w3.org/2000/svg">
<path d="M17.8125 6.25C19.0334 6.48821 20.1555 7.08532 21.0351 7.96492C21.9147 8.84452 22.5118 9.96658 22.75 11.1875L17.8125 6.25ZM17.8125 1.25C20.3491 1.5318 22.7145 2.66772 24.5203 4.47126C26.3261 6.2748 27.465 8.63876 27.75 11.175L17.8125 1.25ZM26.5 21.15V24.9C26.5014 25.2481 26.4301 25.5927 26.2906 25.9117C26.1512 26.2307 25.9466 26.517 25.6901 26.7523C25.4335 26.9877 25.1307 27.1669 24.8009 27.2784C24.4711 27.3899 24.1217 27.4313 23.775 27.4C19.9285 26.9821 16.2337 25.6677 12.9875 23.5625C9.96726 21.6433 7.40665 19.0827 5.48748 16.0625C3.37495 12.8015 2.06028 9.08874 1.64998 5.225C1.61874 4.87933 1.65982 4.53095 1.7706 4.20203C1.88138 3.87311 2.05944 3.57086 2.29343 3.31453C2.52743 3.05819 2.81223 2.85339 3.12972 2.71315C3.4472 2.57292 3.7904 2.50033 4.13748 2.5H7.88748C8.49411 2.49403 9.08222 2.70885 9.54218 3.10442C10.0021 3.49998 10.3026 4.04931 10.3875 4.65C10.5458 5.85008 10.8393 7.02841 11.2625 8.1625C11.4307 8.6099 11.4671 9.09614 11.3674 9.5636C11.2677 10.0311 11.0361 10.4601 10.7 10.8L9.11248 12.3875C10.8919 15.5169 13.483 18.1081 16.6125 19.8875L18.2 18.3C18.5398 17.9639 18.9689 17.7323 19.4364 17.6326C19.9038 17.5329 20.3901 17.5693 20.8375 17.7375C21.9716 18.1607 23.1499 18.4542 24.35 18.6125C24.9572 18.6982 25.5117 19.004 25.9081 19.4719C26.3046 19.9397 26.5152 20.537 26.5 21.15Z" stroke="white" stroke-width="2" stroke-linecap="round" stroke-linejoin="round"/>
</svg>
